<svg xmlns="http://www.w3.org/2000/svg" xmlns:xlink="http://www.w3.org/1999/xlink" width="32" height="32" viewBox="0 0 32 32">
  <defs>
    <clipPath id="clip-Artboard_122">
      <rect width="32" height="32"/>
    </clipPath>
  </defs>
  <g id="Artboard_122" data-name="Artboard 122" clip-path="url(#clip-Artboard_122)">
    <rect width="32" height="32" fill="#fff"/>
    <path id="Path_24" data-name="Path 24" d="M331,166.267a2.118,2.118,0,1,0,2.118,2.118A2.117,2.117,0,0,0,331,166.267Z" transform="translate(-312 -156)" fill="#231f20"/>
    <path id="Path_25" data-name="Path 25" d="M328.176,171.217c-.571-.57-1.67-.322-3.35.749a6.11,6.11,0,0,0-8.249,8.247c-1.076,1.685-1.331,2.79-.76,3.362a1.069,1.069,0,0,0,.791.3,5.23,5.23,0,0,0,2.477-.993c.032-.02.068-.048.1-.069a6.108,6.108,0,0,0,8.238-8.238C328.335,173.145,328.809,171.85,328.176,171.217ZM322,172.268a5.114,5.114,0,0,1,4.244,2.262,28.1,28.1,0,0,1-3.265,3.844,28.444,28.444,0,0,1-3.829,3.258,5.115,5.115,0,0,1,2.85-9.364Zm-5.464,10.61c-.051-.1-.009-.622.646-1.737a6.185,6.185,0,0,0,1.074,1.071C317.349,182.748,316.725,182.971,316.532,182.878Zm10.581-5.493A5.123,5.123,0,0,1,322,182.5a5.06,5.06,0,0,1-1.837-.356,31.345,31.345,0,0,0,3.523-3.065,32.85,32.85,0,0,0,3.074-3.539A5.064,5.064,0,0,1,327.113,177.385Zm-.3-3.751a6.168,6.168,0,0,0-1.064-1.066c1.117-.654,1.626-.686,1.707-.654C327.562,172.112,327.347,172.735,326.818,173.634Z" transform="translate(-312 -156)" fill="#231f20"/>
    <path id="Path_26" data-name="Path 26" d="M336.1,162.024a.5.5,0,0,0-.707,0l-2.5,2.5a.5.5,0,0,0,.354.853.494.494,0,0,0,.353-.146l2.5-2.5A.5.5,0,0,0,336.1,162.024Z" transform="translate(-312 -156)" fill="#231f20"/>
    <path id="Path_27" data-name="Path 27" d="M340.082,160.276l-6.185,6.247a.5.5,0,0,0,.356.851.5.5,0,0,0,.355-.148l6.185-6.247a.5.5,0,0,0-.711-.7Z" transform="translate(-312 -156)" fill="#231f20"/>
  </g>
</svg>
