<svg xmlns="http://www.w3.org/2000/svg" xmlns:xlink="http://www.w3.org/1999/xlink" width="32" height="32" viewBox="0 0 32 32">
  <defs>
    <clipPath id="clip-Artboard_108">
      <rect width="32" height="32"/>
    </clipPath>
  </defs>
  <g id="Artboard_108" data-name="Artboard 108" clip-path="url(#clip-Artboard_108)">
    <rect width="32" height="32" fill="#fff"/>
    <path id="Path_75" data-name="Path 75" d="M74.294,111.926a5.484,5.484,0,0,0-10.629.256A5.353,5.353,0,0,0,62,111.917c-2.93,0-5.5,2.823-5.5,6.041S59.07,124,62,124H74c2.93,0,5.5-2.823,5.5-6.042A5.992,5.992,0,0,0,74.294,111.926ZM74,123H62c-2.576,0-4.5-2.662-4.5-5.042s1.924-5.041,4.5-5.041a4.463,4.463,0,0,1,1.849.407.5.5,0,0,0,.7-.4,4.485,4.485,0,0,1,8.858-.4.5.5,0,0,0,.49.4.411.411,0,0,0,.1-.01c2.576,0,4.5,2.662,4.5,5.041S76.576,123,74,123Z" transform="translate(-52 -104)" fill="#231f20"/>
    <path id="Path_76" data-name="Path 76" d="M64.479,132a.5.5,0,0,0,.707,0l3.166-3.146A.5.5,0,0,0,68,128H66.718l2.1-2.127a.5.5,0,0,0-.711-.7l-2.937,2.978a.5.5,0,0,0,.356.851h1.264l-2.306,2.292A.5.5,0,0,0,64.479,132Z" transform="translate(-52 -104)" fill="#231f20"/>
  </g>
</svg>
