<svg xmlns="http://www.w3.org/2000/svg" xmlns:xlink="http://www.w3.org/1999/xlink" width="32" height="32" viewBox="0 0 32 32">
  <defs>
    <clipPath id="clip-Artboard_99">
      <rect width="32" height="32"/>
    </clipPath>
  </defs>
  <g id="Artboard_99" data-name="Artboard 99" clip-path="url(#clip-Artboard_99)">
    <rect width="32" height="32" fill="#fff"/>
    <path id="Path_111" data-name="Path 111" d="M75.619,63.613A5.516,5.516,0,0,0,70.325,59.6a5.422,5.422,0,0,0-2.327.54,6.464,6.464,0,0,0-4.985-5.257.5.5,0,0,0-.6.6,5.539,5.539,0,0,1-6.631,6.631.5.5,0,0,0-.6.6,6.35,6.35,0,0,0,3.155,4.233A5.687,5.687,0,0,0,63.325,75h12a5.706,5.706,0,0,0,.294-11.387ZM57.646,65.2a5.523,5.523,0,0,1-1.267-1.972,6.538,6.538,0,0,0,7.144-7.143,5.486,5.486,0,0,1,3.551,4.614A5.482,5.482,0,0,0,64.99,63.87a5.378,5.378,0,0,0-1.665-.265,5.489,5.489,0,0,0-4.5,2.472A5.537,5.537,0,0,1,57.646,65.2ZM75.325,74h-12a4.7,4.7,0,0,1,0-9.395,4.441,4.441,0,0,1,1.849.408.505.505,0,0,0,.454-.021.5.5,0,0,0,.249-.38,4.485,4.485,0,0,1,8.858-.4.493.493,0,0,0,.5.4.362.362,0,0,0,.085-.01,4.7,4.7,0,0,1,0,9.395Z" transform="translate(-52 -52)" fill="#231f20"/>
    <path id="Path_112" data-name="Path 112" d="M58.856,79.977l2.5-2.5a.5.5,0,1,0-.708-.707l-2.5,2.5a.5.5,0,0,0,.354.854A.5.5,0,0,0,58.856,79.977Z" transform="translate(-52 -52)" fill="#231f20"/>
    <path id="Path_113" data-name="Path 113" d="M62.856,79.977l2.5-2.5a.5.5,0,0,0-.708-.707l-2.5,2.5a.5.5,0,0,0,.354.854A.5.5,0,0,0,62.856,79.977Z" transform="translate(-52 -52)" fill="#231f20"/>
    <path id="Path_114" data-name="Path 114" d="M66.856,79.977l2.5-2.5a.5.5,0,0,0-.708-.707l-2.5,2.5a.5.5,0,0,0,.354.854A.5.5,0,0,0,66.856,79.977Z" transform="translate(-52 -52)" fill="#231f20"/>
    <path id="Path_115" data-name="Path 115" d="M70.856,79.977l2.5-2.5a.5.5,0,0,0-.708-.707l-2.5,2.5a.5.5,0,0,0,.354.854A.5.5,0,0,0,70.856,79.977Z" transform="translate(-52 -52)" fill="#231f20"/>
  </g>
</svg>
