<svg xmlns="http://www.w3.org/2000/svg" xmlns:xlink="http://www.w3.org/1999/xlink" width="32" height="32" viewBox="0 0 32 32">
  <defs>
    <clipPath id="clip-Artboard_113">
      <rect width="32" height="32"/>
    </clipPath>
  </defs>
  <g id="Artboard_113" data-name="Artboard 113" clip-path="url(#clip-Artboard_113)">
    <rect width="32" height="32" fill="#fff"/>
    <path id="Path_54" data-name="Path 54" d="M338.323,111a.5.5,0,0,0,0,1,2.371,2.371,0,0,1,2.1,2.505,2.464,2.464,0,0,1-2.228,2.49H326a.5.5,0,0,0,0,1h12.191a3.455,3.455,0,0,0,3.228-3.49A3.376,3.376,0,0,0,338.323,111Z" transform="translate(-312 -104)" fill="#231f20"/>
    <path id="Path_55" data-name="Path 55" d="M337.323,125.042a.5.5,0,0,0,0,1,3.3,3.3,0,0,0,3.1-3.459A3.565,3.565,0,0,0,337.191,119H320a.5.5,0,0,0,0,1h17.191a2.565,2.565,0,0,1,2.228,2.583A2.341,2.341,0,0,1,337.323,125.042Z" transform="translate(-312 -104)" fill="#231f20"/>
    <path id="Path_56" data-name="Path 56" d="M323.638,122.158a.5.5,0,0,0-.707.006l-2.937,2.985a.5.5,0,0,0,.357.851h1.263l-2.305,2.287a.5.5,0,0,0,0,.707.493.493,0,0,0,.354.148.5.5,0,0,0,.353-.145l3.167-3.142a.5.5,0,0,0-.353-.855h-1.284l2.1-2.135A.5.5,0,0,0,323.638,122.158Z" transform="translate(-312 -104)" fill="#231f20"/>
    <path id="Path_57" data-name="Path 57" d="M328.225,121.548l-2.5,2.5a.5.5,0,1,0,.708.707l2.5-2.5a.5.5,0,0,0-.707-.707Z" transform="translate(-312 -104)" fill="#231f20"/>
    <path id="Path_58" data-name="Path 58" d="M318.225,121.548l-2.5,2.5a.5.5,0,1,0,.708.707l2.5-2.5a.5.5,0,0,0-.707-.707Z" transform="translate(-312 -104)" fill="#231f20"/>
  </g>
</svg>
