<svg xmlns="http://www.w3.org/2000/svg" xmlns:xlink="http://www.w3.org/1999/xlink" width="32" height="32" viewBox="0 0 32 32">
  <defs>
    <clipPath id="clip-Artboard_117">
      <rect width="32" height="32"/>
    </clipPath>
  </defs>
  <g id="Artboard_117" data-name="Artboard 117" clip-path="url(#clip-Artboard_117)">
    <rect width="32" height="32" fill="#fff"/>
    <path id="Path_41" data-name="Path 41" d="M79.489,164.041a.542.542,0,0,0-.02-.1c-.331-2.252-7.583-2.859-11.469-2.859s-11.138.607-11.469,2.859a.543.543,0,0,0-.02.1c0,.019-.011.037-.011.057s.006.022.007.034a.466.466,0,0,0,.019.1,1.361,1.361,0,0,0,.467.83l10.578,17.616a.5.5,0,0,0,.858,0l10.578-17.616a1.361,1.361,0,0,0,.467-.83.466.466,0,0,0,.019-.1c0-.012.007-.022.007-.034S79.489,164.06,79.489,164.041ZM68,162.083c6.51,0,10.175,1.221,10.471,1.925l-.287.478c-1.017.7-4.524,1.627-10.184,1.627s-9.167-.923-10.184-1.627l-.287-.478C57.825,163.3,61.49,162.083,68,162.083Zm0,19.362L58.707,165.97A33.765,33.765,0,0,0,68,167.113a33.765,33.765,0,0,0,9.293-1.143Z" transform="translate(-52 -156)" fill="#231f20"/>
  </g>
</svg>
