<svg xmlns="http://www.w3.org/2000/svg" xmlns:xlink="http://www.w3.org/1999/xlink" width="32" height="32" viewBox="0 0 32 32">
  <defs>
    <clipPath id="clip-Artboard_114">
      <rect width="32" height="32"/>
    </clipPath>
  </defs>
  <g id="Artboard_114" data-name="Artboard 114" clip-path="url(#clip-Artboard_114)">
    <rect width="32" height="32" fill="#fff"/>
    <path id="Path_48" data-name="Path 48" d="M373.5,116.5a.5.5,0,0,0,.5.5h12a.5.5,0,0,0,0-1H374A.5.5,0,0,0,373.5,116.5Z" transform="translate(-364 -104)" fill="#231f20"/>
    <path id="Path_49" data-name="Path 49" d="M393.546,115.785c0-1.723-1.3-3.642-3.159-3.642a.5.5,0,0,0,0,1c1.215,0,2.159,1.42,2.159,2.642A2.224,2.224,0,0,1,390.318,118H376a.5.5,0,0,0,0,1h14.318A3.225,3.225,0,0,0,393.546,115.785Z" transform="translate(-364 -104)" fill="#231f20"/>
    <path id="Path_50" data-name="Path 50" d="M392.546,123.858c0-1.784-1.41-3.858-3.228-3.858H372a.5.5,0,0,0,0,1h17.318c1.179,0,2.228,1.6,2.228,2.858a2.247,2.247,0,0,1-2.159,2.321.5.5,0,0,0,0,1A3.247,3.247,0,0,0,392.546,123.858Z" transform="translate(-364 -104)" fill="#231f20"/>
    <path id="Path_51" data-name="Path 51" d="M368.5,116.5a.5.5,0,0,0,.5.5h3a.5.5,0,0,0,0-1h-3A.5.5,0,0,0,368.5,116.5Z" transform="translate(-364 -104)" fill="#231f20"/>
    <path id="Path_52" data-name="Path 52" d="M367,121h3a.5.5,0,0,0,0-1h-3a.5.5,0,0,0,0,1Z" transform="translate(-364 -104)" fill="#231f20"/>
    <path id="Path_53" data-name="Path 53" d="M371,119h3a.5.5,0,0,0,0-1h-3a.5.5,0,0,0,0,1Z" transform="translate(-364 -104)" fill="#231f20"/>
  </g>
</svg>
