<svg xmlns="http://www.w3.org/2000/svg" xmlns:xlink="http://www.w3.org/1999/xlink" width="32" height="32" viewBox="0 0 32 32">
  <defs>
    <clipPath id="clip-Artboard_119">
      <rect width="32" height="32"/>
    </clipPath>
  </defs>
  <g id="Artboard_119" data-name="Artboard 119" clip-path="url(#clip-Artboard_119)">
    <rect width="32" height="32" fill="#fff"/>
    <path id="Path_33" data-name="Path 33" d="M172,161.083c-3.978,0-11.5.63-11.5,3.015s7.522,3.015,11.5,3.015,11.5-.63,11.5-3.015S175.977,161.083,172,161.083Zm0,4.833c-3.014,0-4.785-.5-5.2-.818.418-.316,2.19-.818,5.2-.818s4.786.5,5.2.818C176.785,165.414,175.014,165.916,172,165.916Zm6-.215a.864.864,0,0,0,.264-.6c0-1.767-5.623-1.818-6.264-1.818s-6.264.051-6.264,1.818a.864.864,0,0,0,.264.6c-2.938-.448-4.5-1.16-4.5-1.6,0-.683,3.706-2.015,10.5-2.015s10.5,1.332,10.5,2.015C182.5,164.541,180.938,165.253,178,165.7Z" transform="translate(-156 -156)" fill="#231f20"/>
    <path id="Path_34" data-name="Path 34" d="M181.3,168.623a.529.529,0,0,0-.523.475c-.045.446-2.811,1.621-8.778,1.621s-8.733-1.175-8.778-1.621a.5.5,0,0,0-1,0c0,2.073,6.4,2.621,9.778,2.621s9.778-.548,9.778-2.621A.481.481,0,0,0,181.3,168.623Z" transform="translate(-156 -156)" fill="#231f20"/>
    <path id="Path_35" data-name="Path 35" d="M177.165,174.1a.5.5,0,0,0-.991-.1c-.27.238-1.725.662-4.174.662s-3.9-.424-4.174-.662a.5.5,0,0,0-.991.1c0,1.491,4.3,1.567,5.165,1.567S177.165,175.589,177.165,174.1Z" transform="translate(-156 -156)" fill="#231f20"/>
    <path id="Path_36" data-name="Path 36" d="M174.2,177.788l-2.2,3.657-2.19-3.648a.5.5,0,0,0-.858.515l2.619,4.362a.5.5,0,0,0,.858,0l2.624-4.371a.5.5,0,0,0-.857-.515Z" transform="translate(-156 -156)" fill="#231f20"/>
  </g>
</svg>
