<svg xmlns="http://www.w3.org/2000/svg" xmlns:xlink="http://www.w3.org/1999/xlink" width="32" height="32" viewBox="0 0 32 32">
  <defs>
    <clipPath id="clip-Artboard_94">
      <rect width="32" height="32"/>
    </clipPath>
  </defs>
  <g id="Artboard_94" data-name="Artboard 94" clip-path="url(#clip-Artboard_94)">
    <rect width="32" height="32" fill="#fff"/>
    <path id="Path_126" data-name="Path 126" d="M268.646,24.9l-2.5,2.5a.5.5,0,0,0,.707.707l2.5-2.5a.5.5,0,0,0-.707-.708Z" transform="translate(-260)" fill="#231f20"/>
    <path id="Path_127" data-name="Path 127" d="M272.646,24.9l-2.5,2.5a.5.5,0,0,0,.707.707l2.5-2.5a.5.5,0,0,0-.707-.708Z" transform="translate(-260)" fill="#231f20"/>
    <path id="Path_128" data-name="Path 128" d="M276.646,24.9l-2.5,2.5a.5.5,0,0,0,.707.707l2.5-2.5a.5.5,0,0,0-.707-.708Z" transform="translate(-260)" fill="#231f20"/>
    <path id="Path_129" data-name="Path 129" d="M280.646,24.9l-2.5,2.5a.5.5,0,0,0,.707.707l2.5-2.5a.5.5,0,0,0-.707-.708Z" transform="translate(-260)" fill="#231f20"/>
    <path id="Path_130" data-name="Path 130" d="M269.621,23h12a5.495,5.495,0,0,0,4.334-8.879A5.805,5.805,0,0,0,282.065,4a5.843,5.843,0,0,0-5.5,3.964,5.475,5.475,0,0,0-5.28,4.261,5.344,5.344,0,0,0-1.664-.266,5.521,5.521,0,0,0,0,11.042ZM282.065,5a4.807,4.807,0,0,1,3.212,8.39,5.45,5.45,0,0,0-3.363-1.423A5.516,5.516,0,0,0,277.6,8.052,4.837,4.837,0,0,1,282.065,5Zm-12.444,7.959a4.464,4.464,0,0,1,1.849.408.5.5,0,0,0,.7-.4,4.484,4.484,0,0,1,8.857-.4.5.5,0,0,0,.49.4.341.341,0,0,0,.1-.01,4.521,4.521,0,0,1,0,9.042h-12a4.521,4.521,0,0,1,0-9.042Z" transform="translate(-260)" fill="#231f20"/>
  </g>
</svg>
