<svg xmlns="http://www.w3.org/2000/svg" xmlns:xlink="http://www.w3.org/1999/xlink" width="32" height="32" viewBox="0 0 32 32">
  <defs>
    <clipPath id="clip-Artboard_100">
      <rect width="32" height="32"/>
    </clipPath>
  </defs>
  <g id="Artboard_100" data-name="Artboard 100" clip-path="url(#clip-Artboard_100)">
    <rect width="32" height="32" fill="#fff"/>
    <path id="Path_110" data-name="Path 110" d="M132.756,58.623,125.975,65.4a7.922,7.922,0,0,0-5.867-5.439.494.494,0,0,0-.464.134.5.5,0,0,0-.134.464,6.985,6.985,0,0,1-8.364,8.363.493.493,0,0,0-.463.134.5.5,0,0,0-.134.463,7.918,7.918,0,0,0,5.439,5.867L110.93,80.45a.5.5,0,0,0,.707.707l5.634-5.635.014-.013L133.463,59.33a.5.5,0,1,0-.707-.707ZM113.4,72.712a6.968,6.968,0,0,1-1.663-2.67,7.982,7.982,0,0,0,8.892-8.892,6.931,6.931,0,0,1,4.535,5.07L116.8,74.577A6.959,6.959,0,0,1,113.4,72.712Z" transform="translate(-104 -52)" fill="#231f20"/>
  </g>
</svg>
