<svg xmlns="http://www.w3.org/2000/svg" xmlns:xlink="http://www.w3.org/1999/xlink" width="32" height="32" viewBox="0 0 32 32">
  <defs>
    <clipPath id="clip-Artboard_98">
      <rect width="32" height="32"/>
    </clipPath>
  </defs>
  <g id="Artboard_98" data-name="Artboard 98" clip-path="url(#clip-Artboard_98)">
    <rect width="32" height="32" fill="#fff"/>
    <path id="Path_116" data-name="Path 116" d="M23.619,66.736a5.516,5.516,0,0,0-5.294-4.009A5.408,5.408,0,0,0,16,63.268a6.464,6.464,0,0,0-4.985-5.257.489.489,0,0,0-.463.134.5.5,0,0,0-.134.463,5.538,5.538,0,0,1-6.631,6.631.5.5,0,0,0-.6.6,6.344,6.344,0,0,0,3.142,4.225,5.573,5.573,0,0,0-.5,2.3A5.644,5.644,0,0,0,11.325,78h12a5.641,5.641,0,0,0,.294-11.264ZM5.646,68.319a5.527,5.527,0,0,1-1.267-1.973A6.537,6.537,0,0,0,11.523,59.2a5.49,5.49,0,0,1,3.551,4.615,5.476,5.476,0,0,0-2.084,3.175,5.35,5.35,0,0,0-1.665-.266,5.507,5.507,0,0,0-4.511,2.464A5.591,5.591,0,0,1,5.646,68.319ZM23.325,77h-12a4.639,4.639,0,0,1,0-9.273,4.457,4.457,0,0,1,1.849.408.5.5,0,0,0,.7-.4,4.485,4.485,0,0,1,8.858-.4.5.5,0,0,0,.491.4.284.284,0,0,0,.1-.011,4.639,4.639,0,0,1,0,9.273Z" transform="translate(0 -52)" fill="#231f20"/>
  </g>
</svg>
