<svg xmlns="http://www.w3.org/2000/svg" xmlns:xlink="http://www.w3.org/1999/xlink" width="32" height="32" viewBox="0 0 32 32">
  <defs>
    <clipPath id="clip-Artboard_103">
      <rect width="32" height="32"/>
    </clipPath>
  </defs>
  <g id="Artboard_103" data-name="Artboard 103" clip-path="url(#clip-Artboard_103)">
    <rect width="32" height="32" fill="#fff"/>
    <path id="Path_100" data-name="Path 100" d="M268.5,75h12a5.638,5.638,0,0,0,5.5-5.625,5.472,5.472,0,0,0-.172-1.3,4.224,4.224,0,0,0-.76-8.3,4.228,4.228,0,0,0-8.155.18,5.4,5.4,0,0,0-6.748,4.061,5.383,5.383,0,0,0-1.665-.265,5.626,5.626,0,0,0,0,11.25ZM281,57.75a3.257,3.257,0,0,1,3.185,2.606.561.561,0,0,0,.565.394,3.233,3.233,0,0,1,.761,6.379,5.594,5.594,0,0,0-4.718-3.371,5.5,5.5,0,0,0-2.934-3.457A3.223,3.223,0,0,1,281,57.75Zm-12.5,7a4.456,4.456,0,0,1,1.85.408.5.5,0,0,0,.7-.4,4.484,4.484,0,0,1,8.857-.4.5.5,0,0,0,.505.4.362.362,0,0,0,.085-.01,4.627,4.627,0,0,1,0,9.25h-12a4.627,4.627,0,0,1,0-9.25Z" transform="translate(-260 -52)" fill="#231f20"/>
    <path id="Path_101" data-name="Path 101" d="M268,77h12a.5.5,0,0,0,0-1H268a.5.5,0,0,0,0,1Z" transform="translate(-260 -52)" fill="#231f20"/>
    <path id="Path_102" data-name="Path 102" d="M268,79h12a.5.5,0,0,0,0-1H268a.5.5,0,0,0,0,1Z" transform="translate(-260 -52)" fill="#231f20"/>
  </g>
</svg>
