<svg xmlns="http://www.w3.org/2000/svg" xmlns:xlink="http://www.w3.org/1999/xlink" width="32" height="32" viewBox="0 0 32 32">
  <defs>
    <clipPath id="clip-brokenclouds">
      <rect width="32" height="32"/>
    </clipPath>
  </defs>
  <g id="brokenclouds" clip-path="url(#clip-brokenclouds)">
    <rect width="32" height="32" fill="#fff"/>
    <path id="Path_97" data-name="Path 97" d="M317.821,64.538a.5.5,0,0,0,.28.649.507.507,0,0,0,.185.036.5.5,0,0,0,.465-.315,6.965,6.965,0,0,1,6.5-4.408.5.5,0,0,0,0-1A7.964,7.964,0,0,0,317.821,64.538Z" transform="translate(-312 -52)" fill="#231f20"/>
    <path id="Path_98" data-name="Path 98" d="M316.1,62.187a.507.507,0,0,0,.185.036.5.5,0,0,0,.465-.315,6.965,6.965,0,0,1,6.5-4.408.5.5,0,0,0,0-1,7.964,7.964,0,0,0-7.434,5.038A.5.5,0,0,0,316.1,62.187Z" transform="translate(-312 -52)" fill="#231f20"/>
    <path id="Path_99" data-name="Path 99" d="M320.714,79h12c2.93,0,5.5-2.8,5.5-6a6.059,6.059,0,0,0-.234-1.658,4.223,4.223,0,0,0-.7-8.318,4.228,4.228,0,0,0-8.155.18,5.4,5.4,0,0,0-6.749,4.061A5.372,5.372,0,0,0,320.714,67c-2.93,0-5.5,2.8-5.5,6S317.784,79,320.714,79Zm12.5-18a3.255,3.255,0,0,1,3.184,2.606.605.605,0,0,0,.566.394,3.234,3.234,0,0,1,.662,6.4,5.692,5.692,0,0,0-4.618-3.393,5.506,5.506,0,0,0-2.936-3.459A3.225,3.225,0,0,1,333.214,61Zm-12.5,7a4.441,4.441,0,0,1,1.848.408.5.5,0,0,0,.7-.4,4.485,4.485,0,0,1,8.858-.4.506.506,0,0,0,.505.4.361.361,0,0,0,.085-.01c2.575,0,4.5,2.64,4.5,5s-1.925,5-4.5,5h-12c-2.575,0-4.5-2.64-4.5-5S318.139,68,320.714,68Z" transform="translate(-312 -52)" fill="#231f20"/>
  </g>
</svg>
