<svg xmlns="http://www.w3.org/2000/svg" xmlns:xlink="http://www.w3.org/1999/xlink" width="32" height="32" viewBox="0 0 32 32">
  <defs>
    <clipPath id="clip-compass">
      <rect width="32" height="32"/>
    </clipPath>
  </defs>
  <g id="compass" clip-path="url(#clip-compass)">
    <rect width="32" height="32" fill="#fff"/>
    <path id="Path_2" data-name="Path 2" d="M224,212a10,10,0,1,0,10,10A10.011,10.011,0,0,0,224,212Zm0,19a9,9,0,1,1,9-9A9.01,9.01,0,0,1,224,231Z" transform="translate(-208 -206)" fill="#231f20"/>
    <path id="Path_3" data-name="Path 3" d="M227.5,217.664a37.238,37.238,0,0,0-5.08,2.922,37.28,37.28,0,0,0-2.922,5.079.5.5,0,0,0,.67.671,37.224,37.224,0,0,0,5.08-2.922,37.135,37.135,0,0,0,2.923-5.08.5.5,0,0,0-.671-.67Z" transform="translate(-208 -206)" fill="#231f20"/>
  </g>
</svg>
