<svg xmlns="http://www.w3.org/2000/svg" xmlns:xlink="http://www.w3.org/1999/xlink" width="32" height="32" viewBox="0 0 32 32">
  <defs>
    <clipPath id="clip-fewclouds">
      <rect width="32" height="32"/>
    </clipPath>
  </defs>
  <g id="fewclouds" clip-path="url(#clip-fewclouds)">
    <rect width="32" height="32" fill="#fff"/>
    <path id="Path_136" data-name="Path 136" d="M123.5,7.5A.5.5,0,0,0,124,7V5a.5.5,0,0,0-1,0V7A.5.5,0,0,0,123.5,7.5Z" transform="translate(-104)" fill="#231f20"/>
    <path id="Path_137" data-name="Path 137" d="M134,15h-2a.5.5,0,0,0,0,1h2a.5.5,0,0,0,0-1Z" transform="translate(-104)" fill="#231f20"/>
    <path id="Path_138" data-name="Path 138" d="M123.25,28a5.613,5.613,0,0,0,4.293-9.09,5.807,5.807,0,1,0-9.349-6.2,5.473,5.473,0,0,0-5.279,4.261,5.354,5.354,0,0,0-1.665-.266,5.648,5.648,0,0,0,0,11.292Zm.444-18.251a4.808,4.808,0,0,1,3.174,8.425,5.391,5.391,0,0,0-3.325-1.457A5.514,5.514,0,0,0,119.23,12.8,4.835,4.835,0,0,1,123.694,9.749ZM106.75,22.354a4.636,4.636,0,0,1,4.5-4.646,4.464,4.464,0,0,1,1.849.408.5.5,0,0,0,.7-.4,4.485,4.485,0,0,1,8.858-.4.5.5,0,0,0,.59.391,4.648,4.648,0,0,1,0,9.292h-12A4.635,4.635,0,0,1,106.75,22.354Z" transform="translate(-104)" fill="#231f20"/>
    <path id="Path_139" data-name="Path 139" d="M117.386,9.768a.5.5,0,1,0,.707-.707l-1.414-1.415a.5.5,0,1,0-.707.708Z" transform="translate(-104)" fill="#231f20"/>
    <path id="Path_140" data-name="Path 140" d="M129.76,9.914a.5.5,0,0,0,.354-.146l1.414-1.414a.5.5,0,0,0-.707-.708l-1.414,1.415a.5.5,0,0,0,.353.853Z" transform="translate(-104)" fill="#231f20"/>
    <path id="Path_141" data-name="Path 141" d="M129.982,20.364l1.414,1.414a.5.5,0,0,0,.707-.707l-1.414-1.414a.5.5,0,1,0-.707.707Z" transform="translate(-104)" fill="#231f20"/>
  </g>
</svg>
