<svg xmlns="http://www.w3.org/2000/svg" xmlns:xlink="http://www.w3.org/1999/xlink" width="32" height="32" viewBox="0 0 32 32">
  <defs>
    <clipPath id="clip-mist">
      <rect width="32" height="32"/>
    </clipPath>
  </defs>
  <g id="mist" clip-path="url(#clip-mist)">
    <rect width="32" height="32" fill="#fff"/>
    <path id="Path_103" data-name="Path 103" d="M231,70H217a.5.5,0,0,0,0,1h14a.5.5,0,0,0,0-1Z" transform="translate(-208 -52)" fill="#231f20"/>
    <path id="Path_104" data-name="Path 104" d="M231,68H217a.5.5,0,0,0,0,1h14a.5.5,0,0,0,0-1Z" transform="translate(-208 -52)" fill="#231f20"/>
    <path id="Path_105" data-name="Path 105" d="M231,66H217a.5.5,0,0,0,0,1h14a.5.5,0,0,0,0-1Z" transform="translate(-208 -52)" fill="#231f20"/>
  </g>
</svg>
