<svg xmlns="http://www.w3.org/2000/svg" xmlns:xlink="http://www.w3.org/1999/xlink" width="32" height="32" viewBox="0 0 32 32">
  <defs>
    <clipPath id="clip-scatteredclouds">
      <rect width="32" height="32"/>
    </clipPath>
  </defs>
  <g id="scatteredclouds" clip-path="url(#clip-scatteredclouds)">
    <rect width="32" height="32" fill="#fff"/>
    <path id="Path_135" data-name="Path 135" d="M165.621,26h12a5.494,5.494,0,0,0,4.334-8.878,5.806,5.806,0,1,0-9.39-6.159,5.473,5.473,0,0,0-5.279,4.261,5.354,5.354,0,0,0-1.665-.266,5.521,5.521,0,0,0,0,11.042ZM178.065,8a4.807,4.807,0,0,1,3.211,8.39,5.445,5.445,0,0,0-3.362-1.423,5.518,5.518,0,0,0-4.314-3.914A4.837,4.837,0,0,1,178.065,8Zm-12.444,7.959a4.456,4.456,0,0,1,1.848.408.5.5,0,0,0,.7-.4,4.485,4.485,0,0,1,8.858-.4.5.5,0,0,0,.49.4.265.265,0,0,0,.1-.01,4.521,4.521,0,0,1,0,9.042h-12a4.521,4.521,0,0,1,0-9.042Z" transform="translate(-156)" fill="#231f20"/>
  </g>
</svg>
