<svg xmlns="http://www.w3.org/2000/svg" xmlns:xlink="http://www.w3.org/1999/xlink" width="32" height="32" viewBox="0 0 32 32">
  <defs>
    <clipPath id="clip-showerrain">
      <rect width="32" height="32"/>
    </clipPath>
  </defs>
  <g id="showerrain" clip-path="url(#clip-showerrain)">
    <rect width="32" height="32" fill="#fff"/>
    <path id="Path_77" data-name="Path 77" d="M28.125,118.25a5.728,5.728,0,0,0-5.207-5.742,5.484,5.484,0,0,0-10.628.257,5.383,5.383,0,0,0-1.665-.265,5.756,5.756,0,0,0,0,11.5h12A5.7,5.7,0,0,0,28.125,118.25Zm-22,0a4.692,4.692,0,0,1,4.5-4.75,4.448,4.448,0,0,1,1.849.408.5.5,0,0,0,.454-.021.5.5,0,0,0,.249-.38,4.485,4.485,0,0,1,8.858-.4.48.48,0,0,0,.5.4.364.364,0,0,0,.086-.01,4.757,4.757,0,0,1,0,9.5h-12A4.692,4.692,0,0,1,6.125,118.25Z" transform="translate(0 -104)" fill="#231f20"/>
    <path id="Path_78" data-name="Path 78" d="M9.729,125.646a.5.5,0,0,0-.708,0l-2.5,2.5a.5.5,0,0,0,.707.707l2.5-2.5A.5.5,0,0,0,9.729,125.646Z" transform="translate(0 -104)" fill="#231f20"/>
    <path id="Path_79" data-name="Path 79" d="M13.729,125.646a.5.5,0,0,0-.708,0l-2.5,2.5a.5.5,0,0,0,.707.707l2.5-2.5A.5.5,0,0,0,13.729,125.646Z" transform="translate(0 -104)" fill="#231f20"/>
    <path id="Path_80" data-name="Path 80" d="M17.729,125.646a.5.5,0,0,0-.708,0l-2.5,2.5a.5.5,0,0,0,.707.707l2.5-2.5A.5.5,0,0,0,17.729,125.646Z" transform="translate(0 -104)" fill="#231f20"/>
    <path id="Path_81" data-name="Path 81" d="M21.021,125.646l-2.5,2.5a.5.5,0,0,0,.707.707l2.5-2.5a.5.5,0,0,0-.708-.708Z" transform="translate(0 -104)" fill="#231f20"/>
    <path id="Path_82" data-name="Path 82" d="M17.021,129.646l-1,1a.5.5,0,0,0,.708.708l1-1a.5.5,0,1,0-.708-.708Z" transform="translate(0 -104)" fill="#231f20"/>
    <path id="Path_83" data-name="Path 83" d="M13.021,129.646l-1,1a.5.5,0,0,0,.708.708l1-1a.5.5,0,1,0-.708-.708Z" transform="translate(0 -104)" fill="#231f20"/>
    <path id="Path_84" data-name="Path 84" d="M9.021,129.646l-1,1a.5.5,0,0,0,.708.708l1-1a.5.5,0,0,0-.708-.708Z" transform="translate(0 -104)" fill="#231f20"/>
    <path id="Path_85" data-name="Path 85" d="M5.021,129.646l-1,1a.5.5,0,0,0,.708.708l1-1a.5.5,0,0,0-.708-.708Z" transform="translate(0 -104)" fill="#231f20"/>
  </g>
</svg>
