<svg xmlns="http://www.w3.org/2000/svg" xmlns:xlink="http://www.w3.org/1999/xlink" width="32" height="32" viewBox="0 0 32 32">
  <defs>
    <clipPath id="clip-sunny">
      <rect width="32" height="32"/>
    </clipPath>
  </defs>
  <g id="sunny" clip-path="url(#clip-sunny)">
    <rect width="32" height="32" fill="#fff"/>
    <path id="Path_143" data-name="Path 143" d="M16.167,23.833a8,8,0,1,0-8-8A8.009,8.009,0,0,0,16.167,23.833Zm0-15a7,7,0,1,1-7,7A7.009,7.009,0,0,1,16.167,8.833Z" fill="#231f20"/>
    <path id="Path_144" data-name="Path 144" d="M15.5,5.5A.5.5,0,0,0,16,5V1a.5.5,0,0,0-1,0V5A.5.5,0,0,0,15.5,5.5Z" fill="#231f20"/>
    <path id="Path_145" data-name="Path 145" d="M16,31V27a.5.5,0,0,0-1,0v4a.5.5,0,0,0,1,0Z" fill="#231f20"/>
    <path id="Path_146" data-name="Path 146" d="M5.5,16.5A.5.5,0,0,0,5,16H1a.5.5,0,0,0,0,1H5A.5.5,0,0,0,5.5,16.5Z" fill="#231f20"/>
    <path id="Path_147" data-name="Path 147" d="M31,16H27a.5.5,0,0,0,0,1h4a.5.5,0,0,0,0-1Z" fill="#231f20"/>
    <path id="Path_148" data-name="Path 148" d="M6.08,26.793l2.829-2.828a.5.5,0,1,0-.707-.707L5.373,26.086a.5.5,0,1,0,.707.707Z" fill="#231f20"/>
    <path id="Path_149" data-name="Path 149" d="M24.111,8.555a.5.5,0,0,0,.354-.146L27.293,5.58a.5.5,0,0,0-.707-.707L23.758,7.7a.5.5,0,0,0,.353.853Z" fill="#231f20"/>
    <path id="Path_150" data-name="Path 150" d="M24.465,23.258a.5.5,0,1,0-.707.707l2.828,2.828a.5.5,0,0,0,.707-.707Z" fill="#231f20"/>
    <path id="Path_151" data-name="Path 151" d="M8.2,8.409A.5.5,0,1,0,8.909,7.7L6.08,4.873a.5.5,0,0,0-.707.707Z" fill="#231f20"/>
  </g>
</svg>
