<svg xmlns="http://www.w3.org/2000/svg" xmlns:xlink="http://www.w3.org/1999/xlink" width="32" height="32" viewBox="0 0 32 32">
  <defs>
    <clipPath id="clip-tornado">
      <rect width="32" height="32"/>
    </clipPath>
  </defs>
  <g id="tornado" clip-path="url(#clip-tornado)">
    <rect width="32" height="32" fill="#fff"/>
    <path id="Path_37" data-name="Path 37" d="M120,161.083c-3.978,0-11.5.63-11.5,3.015s7.522,3.015,11.5,3.015,11.5-.63,11.5-3.015S123.977,161.083,120,161.083Zm0,5.03c-6.794,0-10.5-1.331-10.5-2.015s3.706-2.015,10.5-2.015,10.5,1.332,10.5,2.015S126.794,166.113,120,166.113Z" transform="translate(-104 -156)" fill="#231f20"/>
    <path id="Path_38" data-name="Path 38" d="M129.3,168.623a.532.532,0,0,0-.523.475c-.045.446-2.811,1.621-8.778,1.621s-8.733-1.175-8.778-1.621a.5.5,0,0,0-1,0c0,2.073,6.4,2.621,9.778,2.621s9.778-.548,9.778-2.621A.481.481,0,0,0,129.3,168.623Z" transform="translate(-104 -156)" fill="#231f20"/>
    <path id="Path_39" data-name="Path 39" d="M125.165,174.1a.5.5,0,0,0-.991-.1c-.27.238-1.725.662-4.174.662s-3.9-.424-4.174-.662a.5.5,0,0,0-.991.1c0,1.491,4.3,1.567,5.165,1.567S125.165,175.589,125.165,174.1Z" transform="translate(-104 -156)" fill="#231f20"/>
    <path id="Path_40" data-name="Path 40" d="M120,182.917a.5.5,0,0,0,.429-.243l2.624-4.371a.5.5,0,0,0-.857-.515l-2.2,3.657-2.19-3.648a.5.5,0,0,0-.858.515l2.619,4.362A.5.5,0,0,0,120,182.917Z" transform="translate(-104 -156)" fill="#231f20"/>
  </g>
</svg>
